{"asset":{"version":"2.0","generator":"VECTARY"},"nodes":[{"translation":[-0.018818129052790938,0,0],"scale":[0.001,0.001,0.001],"rotation":[-0.7071067811865475,0,0,0.7071067811865476],"name":"Mug","mesh":0},{"translation":[-0.772411064029166,0.3383391092799396,-0.18467958533846013],"scale":[1,1,1],"rotation":[-0.1300408186819743,-0.757659630945144,-0.15904967187607583,0.6194711219973881],"name":"Camera","camera":0}],"materials":[{"pbrMetallicRoughness":{"baseColorFactor":[1,1,1,1],"baseColorTexture":{"index":0,"extensions":{"KHR_texture_transform":{"offset":[0,0],"scale":[1,1],"rotation":0}},"texCoord":0},"metallicFactor":0,"roughnessFactor":0.1},"name":"Mug0","emissiveFactor":[0,0,0],"extensions":{},"alphaMode":"OPAQUE","doubleSided":false}],"textures":[{"sampler":0,"source":0}],"images":[{"uri":"data:application/octet-stream;base64,","mimeType":"image/jpeg"}],"samplers":[{"wrapS":10497,"wrapT":10497}],"meshes":[{"primitives":[{"mode":4,"attributes":{"POSITION":1,"NORMAL":2,"TEXCOORD_0":3},"material":0,"indices":0}]}],"accessors":[{"bufferView":0,"byteOffset":0,"componentType":5125,"count":60624,"type":"SCALAR"},{"bufferView":1,"byteOffset":0,"componentType":5126,"count":10593,"max":[77.92689514160156,39.63600158691406,100.09290313720703],"min":[-39.637001037597656,-39.63600158691406,0.10000000149011612],"type":"VEC3"},{"bufferView":2,"byteOffset":0,"componentType":5126,"count":10593,"type":"VEC3"},{"bufferView":3,"byteOffset":0,"componentType":5126,"count":10593,"type":"VEC2"}],"bufferViews":[{"buffer":0,"byteOffset":0,"byteLength":242496,"target":34963},{"buffer":0,"byteOffset":242496,"byteLength":127116,"target":34962},{"buffer":0,"byteOffset":369612,"byteLength":127116,"target":34962},{"buffer":0,"byteOffset":496728,"byteLength":84744,"target":34962}],"cameras":[{"name":"Camera","type":"perspective","extras":{"targetDistance":0.7911027047119006},"perspective":{"aspectRatio":1.4699886749716875,"yfov":0.6108652381980153,"zfar":50.02690546959918,"znear":0.012370545168652568}}],"scene":0,"scenes":[{"nodes":[0,1],"name":"Project Name"}],"extensionsUsed":["KHR_texture_transform"],"buffers":[{"byteLength":581472,"uri":"data:application/octet-stream;base64,"}]}